<svg width="133" height="48" viewBox="0 0 133 48" fill="none" xmlns="http://www.w3.org/2000/svg">
<path d="M18.7779 24.2632H24.3286C25.685 24.2632 26.3632 22.7253 25.5042 21.7303L22.3845 18.1571H23.0627C24.2382 18.1571 24.8712 16.8002 24.1026 15.8956L21.3898 12.7294H21.8419C22.8366 12.7294 23.334 11.6891 22.7462 11.0107L16.6425 4.40707C16.1451 3.86431 15.3765 3.86431 14.8792 4.40707L8.77544 11.0107C8.18767 11.6891 8.68502 12.7294 9.6797 12.7294H10.1318L7.41906 15.8956C6.69565 16.8002 7.28342 18.1571 8.45895 18.1571H9.13714L6.01746 21.7303C5.15842 22.7253 5.83661 24.3084 7.14778 24.3084H12.7326V33.4737H18.7779V24.2632Z" fill="#80D4CC"/>
<path d="M18.7743 34.5264H12.7363C12.7578 34.9472 12.8728 35.379 13.0814 35.7547L15.0578 39.4065C15.1973 39.6391 15.453 39.802 15.7553 39.7787C16.0576 39.802 16.3133 39.6391 16.4296 39.3833L18.4292 35.7547C18.6378 35.379 18.7528 34.9472 18.7743 34.5264Z" fill="#66AAA3"/>
<ellipse cx="15.2573" cy="42.4212" rx="15.2573" ry="1.57895" fill="#CC8B49"/>
<path d="M39.9753 39.3671V36.6739H39.7749C39.3382 36.6739 39.0916 36.4426 39.0916 36.0468C39.0916 35.651 39.3382 35.4197 39.7749 35.4197H40.0164V34.8235C40.0164 34.2581 40.3041 33.9446 40.8127 33.9446C41.3265 33.9446 41.6091 34.2581 41.6091 34.8235V35.4197H42.0407C42.4774 35.4197 42.724 35.651 42.724 36.0468C42.724 36.4426 42.4774 36.6739 42.0407 36.6739H41.6296V39.1153C41.6296 39.5573 41.7529 39.7218 42.1023 39.7218C42.2462 39.7218 42.3335 39.6961 42.4774 39.6961C42.7343 39.6961 42.9141 39.876 42.9141 40.1638C42.9141 40.4002 42.8062 40.5955 42.6007 40.7343C42.3798 40.8885 42.0561 40.9707 41.6399 40.9707C40.4993 40.9707 39.9753 40.4773 39.9753 39.3671Z" fill="#515151"/>
<path d="M49.3641 39.989C49.3641 40.5698 49.0713 40.8936 48.5421 40.8936C48.0077 40.8936 47.7149 40.5698 47.7149 39.989V37.6504C47.7149 37.0079 47.3963 36.6379 46.8466 36.6379C46.266 36.6379 45.8807 37.0953 45.8807 37.8046V39.989C45.8807 40.5698 45.5827 40.8936 45.0586 40.8936C44.5243 40.8936 44.2314 40.5698 44.2314 39.989V34.3198C44.2314 33.7339 44.5294 33.4101 45.0586 33.4101C45.5878 33.4101 45.8807 33.7339 45.8807 34.3198V36.3038H45.9629C46.1478 35.6922 46.8003 35.2707 47.5556 35.2707C48.6962 35.2707 49.3641 35.9903 49.3641 37.2187V39.989Z" fill="#515151"/>
<path d="M51.0308 33.9498C51.0308 33.482 51.4059 33.1479 51.9197 33.1479C52.4386 33.1479 52.8085 33.482 52.8085 33.9498C52.8085 34.4226 52.4386 34.7567 51.9197 34.7567C51.4059 34.7567 51.0308 34.4226 51.0308 33.9498ZM52.7468 39.989C52.7468 40.5801 52.4437 40.8936 51.9197 40.8936C51.3956 40.8936 51.0976 40.5801 51.0976 39.989V36.2113C51.0976 35.6202 51.4007 35.3067 51.9197 35.3067C52.4437 35.3067 52.7468 35.6202 52.7468 36.2113V39.989Z" fill="#515151"/>
<path d="M59.6182 39.9942C59.6182 40.5801 59.3202 40.8936 58.791 40.8936C58.2566 40.8936 57.9638 40.5698 57.9638 39.989V37.6453C57.9638 37.0131 57.6504 36.6379 57.1109 36.6379C56.5303 36.6379 56.1553 37.0799 56.1553 37.8046V39.989C56.1553 40.5698 55.8624 40.8936 55.3332 40.8936C54.804 40.8936 54.506 40.5698 54.506 39.989V36.1804C54.506 35.6356 54.8143 35.3067 55.3127 35.3067C55.8008 35.3067 56.0833 35.5842 56.109 36.1033V36.3038H56.1912C56.3916 35.6767 57.0236 35.2707 57.8045 35.2707C58.9605 35.2707 59.6182 35.9748 59.6182 37.2135V39.9942Z" fill="#515151"/>
<path d="M62.9701 39.989C62.9701 40.5647 62.6875 40.8936 62.1634 40.8936C61.6291 40.8936 61.326 40.5647 61.326 39.989V34.3198C61.326 33.7339 61.6137 33.4101 62.148 33.4101C62.6772 33.4101 62.9701 33.7339 62.9701 34.3198V37.3626H63.0626L64.7735 35.5894C64.9995 35.3529 65.1948 35.2553 65.4465 35.2553C65.8575 35.2553 66.1555 35.5534 66.1555 35.9646C66.1555 36.1753 66.0733 36.3603 65.8986 36.5351L64.6604 37.7789L66.0374 39.4802C66.2223 39.7012 66.3148 39.9222 66.3148 40.1381C66.3148 40.5544 65.986 40.8834 65.5647 40.8834C65.277 40.8834 65.0612 40.7651 64.8454 40.503L63.3862 38.6578L62.9701 39.0587V39.989Z" fill="#515151"/>
<path d="M73.6609 39.9222C73.481 40.4619 72.9005 40.9039 72.0373 40.9039C70.9429 40.9039 70.2442 40.2871 70.2442 39.0073V36.2061C70.2442 35.6099 70.5525 35.3067 71.0765 35.3067C71.5955 35.3067 71.8986 35.6099 71.8986 36.2061V38.591C71.8986 39.2695 72.2531 39.5624 72.7463 39.5624C73.3372 39.5624 73.6968 39.1615 73.6968 38.555V36.2061C73.6968 35.6099 74 35.3067 74.5189 35.3067C75.0429 35.3067 75.3461 35.6099 75.3461 36.2061V40.0199C75.3461 40.575 75.0275 40.8936 74.5394 40.8936C74.0616 40.8936 73.7687 40.6212 73.7431 40.1021V39.9222H73.6609Z" fill="#515151"/>
<path d="M78.7082 41.8548C78.7082 42.4407 78.4154 42.7594 77.8862 42.7594C77.3519 42.7594 77.0641 42.4407 77.0641 41.8548V36.2113C77.0641 35.6305 77.3519 35.3067 77.8759 35.3067C78.364 35.3067 78.6569 35.5739 78.698 36.0674V36.2216H78.7802C79.0011 35.6408 79.5868 35.2707 80.3472 35.2707C81.6111 35.2707 82.3561 36.1907 82.3561 37.7635V38.3957C82.3561 39.9736 81.606 40.9039 80.3369 40.9039C79.592 40.9039 79.0268 40.5698 78.7905 39.9839H78.7082V41.8548ZM78.7082 38.3905C78.7082 39.1461 79.0987 39.6241 79.6947 39.6241C80.301 39.6241 80.6555 39.1358 80.6555 38.3032V37.8714C80.6555 37.0285 80.301 36.5505 79.6844 36.5505C79.0782 36.5505 78.7082 37.0182 78.7082 37.82V38.3905Z" fill="#515151"/>
<path d="M86.8918 39.3671V36.6739H86.6914C86.2547 36.6739 86.0081 36.4426 86.0081 36.0468C86.0081 35.651 86.2547 35.4197 86.6914 35.4197H86.9329V34.8235C86.9329 34.2581 87.2206 33.9446 87.7292 33.9446C88.243 33.9446 88.5256 34.2581 88.5256 34.8235V35.4197H88.9572C89.3939 35.4197 89.6405 35.651 89.6405 36.0468C89.6405 36.4426 89.3939 36.6739 88.9572 36.6739H88.5461V39.1153C88.5461 39.5573 88.6695 39.7218 89.0188 39.7218C89.1627 39.7218 89.25 39.6961 89.3939 39.6961C89.6508 39.6961 89.8306 39.876 89.8306 40.1638C89.8306 40.4002 89.7227 40.5955 89.5172 40.7343C89.2963 40.8885 88.9726 40.9707 88.5564 40.9707C87.4158 40.9707 86.8918 40.4773 86.8918 39.3671Z" fill="#515151"/>
<path d="M93.46 35.2193C95.0424 35.2193 96.0957 36.2061 96.0957 37.8098V38.3443C96.0957 40.0199 95.0424 40.9759 93.46 40.9759C91.8724 40.9759 90.8191 40.0199 90.8191 38.3494V37.82C90.8191 36.2061 91.8724 35.2193 93.46 35.2193ZM93.46 36.4528C92.8742 36.4528 92.5197 36.9514 92.5197 37.8098V38.3803C92.5197 39.2386 92.8742 39.7423 93.46 39.7423C94.0508 39.7423 94.3899 39.2386 94.3899 38.3803V37.8098C94.3899 36.9514 94.0508 36.4528 93.46 36.4528Z" fill="#515151"/>
<path d="M100.907 39.8554C100.706 40.3642 100.136 40.7137 99.3808 40.7137C98.1528 40.7137 97.3565 39.7989 97.3565 38.2055V37.7841C97.3565 36.1907 98.1528 35.2707 99.3756 35.2707C100.162 35.2707 100.732 35.6613 100.922 36.1907H101.004V36.0519C101.04 35.5482 101.343 35.2861 101.811 35.2861C102.335 35.2861 102.638 35.6048 102.638 36.1907V40.6829C102.638 42.1375 101.595 42.9033 99.9254 42.9033C99.1753 42.9033 98.5793 42.7851 98.1785 42.5641C97.8035 42.3585 97.5774 42.0604 97.5774 41.7057C97.5774 41.3408 97.8343 41.0992 98.2402 41.0992C98.4662 41.0992 98.6152 41.1866 98.7951 41.2945C99.0468 41.4333 99.3602 41.6235 99.9151 41.6235C100.645 41.6235 100.989 41.2894 100.989 40.5493V39.8554H100.907ZM99.0622 38.2312C99.0622 39.033 99.4424 39.5367 100.038 39.5367C100.65 39.5367 100.989 39.0125 100.989 38.2929V37.7995C100.989 37.0696 100.645 36.5505 100.028 36.5505C99.4322 36.5505 99.0622 37.0491 99.0622 37.856V38.2312Z" fill="#515151"/>
<path d="M104.151 38.406V37.7995C104.151 36.2473 105.178 35.2193 106.725 35.2193C108.179 35.2193 109.206 36.237 109.206 37.599C109.206 38.2261 108.985 38.4522 108.395 38.4522H105.831V38.6527C105.841 39.3003 106.273 39.7372 107.007 39.7372C107.403 39.7372 107.67 39.6498 107.881 39.4956C108.133 39.3363 108.24 39.2386 108.497 39.2386C108.831 39.2386 109.052 39.4545 109.052 39.804C109.052 40.097 108.872 40.354 108.559 40.5493C108.184 40.8165 107.583 40.9759 106.889 40.9759C105.194 40.9759 104.151 40.0096 104.151 38.406ZM105.831 37.5065H107.65V37.4911C107.65 36.864 107.3 36.4528 106.761 36.4528C106.18 36.4528 105.831 36.8743 105.831 37.4911V37.5065Z" fill="#515151"/>
<path d="M111.14 39.3671V36.6739H110.94C110.503 36.6739 110.257 36.4426 110.257 36.0468C110.257 35.651 110.503 35.4197 110.94 35.4197H111.181V34.8235C111.181 34.2581 111.469 33.9446 111.978 33.9446C112.491 33.9446 112.774 34.2581 112.774 34.8235V35.4197H113.206C113.642 35.4197 113.889 35.651 113.889 36.0468C113.889 36.4426 113.642 36.6739 113.206 36.6739H112.795V39.1153C112.795 39.5573 112.918 39.7218 113.267 39.7218C113.411 39.7218 113.498 39.6961 113.642 39.6961C113.899 39.6961 114.079 39.876 114.079 40.1638C114.079 40.4002 113.971 40.5955 113.766 40.7343C113.545 40.8885 113.221 40.9707 112.805 40.9707C111.664 40.9707 111.14 40.4773 111.14 39.3671Z" fill="#515151"/>
<path d="M120.529 39.989C120.529 40.5698 120.236 40.8936 119.707 40.8936C119.173 40.8936 118.88 40.5698 118.88 39.989V37.6504C118.88 37.0079 118.561 36.6379 118.012 36.6379C117.431 36.6379 117.046 37.0953 117.046 37.8046V39.989C117.046 40.5698 116.748 40.8936 116.224 40.8936C115.689 40.8936 115.396 40.5698 115.396 39.989V34.3198C115.396 33.7339 115.694 33.4101 116.224 33.4101C116.753 33.4101 117.046 33.7339 117.046 34.3198V36.3038H117.128C117.313 35.6922 117.965 35.2707 118.721 35.2707C119.861 35.2707 120.529 35.9903 120.529 37.2187V39.989Z" fill="#515151"/>
<path d="M121.985 38.406V37.7995C121.985 36.2473 123.013 35.2193 124.559 35.2193C126.013 35.2193 127.041 36.237 127.041 37.599C127.041 38.2261 126.82 38.4522 126.229 38.4522H123.665V38.6527C123.675 39.3003 124.107 39.7372 124.842 39.7372C125.237 39.7372 125.505 39.6498 125.715 39.4956C125.967 39.3363 126.075 39.2386 126.332 39.2386C126.666 39.2386 126.887 39.4545 126.887 39.804C126.887 40.097 126.707 40.354 126.393 40.5493C126.018 40.8165 125.417 40.9759 124.724 40.9759C123.028 40.9759 121.985 40.0096 121.985 38.406ZM123.665 37.5065H125.484V37.4911C125.484 36.864 125.135 36.4528 124.595 36.4528C124.015 36.4528 123.665 36.8743 123.665 37.4911V37.5065Z" fill="#515151"/>
<path d="M130.182 39.989C130.182 40.5647 129.874 40.8936 129.339 40.8936C128.8 40.8936 128.533 40.5647 128.533 39.989V36.2113C128.533 35.6305 128.815 35.3067 129.345 35.3067C129.822 35.3067 130.095 35.5739 130.131 36.0725V36.1496H130.208C130.393 35.5842 130.783 35.2707 131.312 35.2707C131.538 35.2707 131.718 35.3324 131.847 35.4557C131.98 35.5791 132.052 35.759 132.052 35.9903C132.052 36.2164 131.985 36.3809 131.852 36.494C131.728 36.5968 131.538 36.6533 131.292 36.6636C130.547 36.6893 130.182 37.0953 130.182 37.8817V39.989Z" fill="#515151"/>
<path d="M39.429 22.2318C38.9913 22.2318 38.7388 21.9792 38.7388 21.5245C38.7388 21.0697 38.9913 20.8339 39.429 20.8339H42.3248V16.9603H40.2708C39.8499 16.9603 39.5974 16.7245 39.5974 16.2697C39.5974 15.8318 39.8499 15.5792 40.2708 15.5792H42.3248V12.9855C42.3248 12.3118 42.7456 11.9413 43.5032 11.9413C44.2608 11.9413 44.6817 12.3118 44.6817 12.9855V15.5792H47.8973V12.9855C47.8973 12.3118 48.3182 11.9413 49.0758 11.9413C49.8166 11.9413 50.2543 12.3118 50.2543 12.9855V15.5792H52.3419C52.7797 15.5792 53.0154 15.8318 53.0154 16.2697C53.0154 16.7245 52.7797 16.9603 52.3419 16.9603H50.2543V20.8339H53.1837C53.6214 20.8339 53.874 21.0697 53.874 21.5245C53.874 21.9792 53.6214 22.2318 53.1837 22.2318H39.429ZM44.6817 16.9603V20.8339H47.8973V16.9603H44.6817ZM45.069 22.9729C45.675 23.5287 45.6245 24.2192 44.9511 24.775C43.3517 26.1392 41.1631 27.2339 39.6984 27.6213C39.328 27.7224 39.025 27.6213 38.8903 27.3013C38.7556 26.9982 38.8229 26.7118 39.1933 26.476C40.4055 25.7013 41.9712 24.5055 43.217 23.0739C43.7726 22.4508 44.4965 22.4339 45.069 22.9729ZM53.1164 25.1624C53.8235 25.6845 53.975 26.3918 53.4531 27.0992C52.9144 27.7729 52.1567 27.8234 51.5002 27.2003C50.3722 26.1224 48.857 24.8255 47.6785 23.8992C47.3081 23.596 47.2408 23.2929 47.4428 22.9392C47.628 22.5855 47.931 22.5182 48.3687 22.6697C49.8839 23.1582 51.7359 24.1687 53.1164 25.1624Z" fill="#515151"/>
<path d="M56.9086 17.0613C56.5887 17.2297 56.3025 17.2466 56.1005 16.9771C55.8985 16.6908 55.9658 16.455 56.1847 16.2024C57.2958 14.9897 58.0534 13.5245 58.4911 12.3118C58.7268 11.6718 59.3329 11.4529 60.0063 11.7055C60.6966 11.975 60.8313 12.4971 60.5283 13.1708V13.1876H63.3735C63.7775 13.1876 64.0132 13.4571 64.0132 13.8445C64.0132 14.2487 63.7775 14.4845 63.3735 14.4845H61.5721C61.7741 14.7371 61.9593 15.0066 62.1276 15.2929C62.4307 15.8824 62.195 16.3034 61.5889 16.4718C61.0165 16.6571 60.6293 16.4213 60.5114 15.7982C60.3936 15.3603 60.2926 14.9392 60.1747 14.4845H59.737C58.9794 15.5455 57.9187 16.5392 56.9086 17.0613ZM70.5623 24.2024C70.9832 24.2024 71.2189 24.4213 71.2189 24.8424C71.2189 25.2466 70.9832 25.4992 70.5623 25.4992H64.8887V26.5266C64.8887 27.3013 64.4509 27.655 63.6765 27.655C62.8852 27.655 62.4475 27.3013 62.4475 26.5266V25.4992H56.7234C56.3025 25.4992 56.0668 25.2466 56.0668 24.8424C56.0668 24.4213 56.3025 24.2024 56.7234 24.2024H62.4475V23.5961H58.2218C57.8177 23.5961 57.5989 23.3603 57.5989 22.956C57.5989 22.5518 57.8177 22.3497 58.2218 22.3497H62.4475V21.7434H58.6258C58.2386 21.7434 58.0029 21.4908 58.0029 21.1203C58.0029 20.7329 58.2386 20.5139 58.6258 20.5139H62.4475V19.9076H56.9591C56.5382 19.9076 56.3025 19.655 56.3025 19.2339C56.3025 18.8297 56.5382 18.6108 56.9591 18.6108H62.4475V18.0213H58.7773C58.3733 18.0213 58.1544 17.8192 58.1544 17.415C58.1544 17.0276 58.3733 16.7918 58.7773 16.7918H62.4475V16.3708C62.4475 15.6971 62.8516 15.3266 63.4913 15.2592L63.5082 15.2424C64.0469 14.4003 64.5015 13.4739 64.7877 12.3792C64.9729 11.6718 65.5621 11.5371 66.2692 11.7729C66.9426 11.9918 66.9931 12.5308 66.7406 13.1203L66.6901 13.2213H70.5623C70.9663 13.2213 71.202 13.4403 71.202 13.8613C71.202 14.2824 70.9663 14.5182 70.5623 14.5182H68.4073C68.5925 14.7203 68.7609 14.9392 68.9124 15.175C69.2828 15.7476 69.0807 16.2192 68.4747 16.4382C67.8686 16.6739 67.4309 16.4213 67.2793 15.7813C67.1783 15.3434 67.0605 14.9224 66.9258 14.5182H65.882C65.5453 14.956 65.158 15.3939 64.754 15.7645C64.8382 15.9329 64.8887 16.1182 64.8887 16.3539V16.7918H68.3905C69.0639 16.7918 69.4343 17.1624 69.4343 17.8192V18.6108H70.5791C71 18.6108 71.2189 18.8466 71.2189 19.2508C71.2189 19.6718 71 19.9076 70.5791 19.9076H69.4343V20.7329C69.4343 21.4066 69.0639 21.7434 68.3905 21.7434H64.8887V22.3497H69.7037C70.1245 22.3497 70.3434 22.5518 70.3434 22.956C70.3434 23.3603 70.1245 23.5961 69.7037 23.5961H64.8887V24.2024H70.5623ZM64.8887 18.0213V18.6108H67.1278V18.3245C67.1278 18.1729 67.0436 18.0213 66.9258 18.0213H64.8887ZM64.8887 19.9076V20.5139H66.9258C67.0436 20.5139 67.1278 20.4634 67.1278 20.3455V19.9076H64.8887Z" fill="#515151"/>
<path d="M76.6441 26.8129C76.3243 26.6782 76.1896 26.4087 76.2906 26.055C76.3748 25.735 76.5936 25.6003 77.0145 25.6508C79.6409 25.9371 79.9607 25.735 79.9607 24.8929V13.0024C79.9607 12.1939 80.3816 11.8234 81.2066 11.8234C82.0315 11.8234 82.4861 12.1939 82.4861 13.0024V25.415C82.4861 27.5708 80.3143 28.3792 76.6441 26.8129ZM87.7725 24.0676C86.9307 24.3371 86.2909 24.0003 86.1057 23.1918C85.4828 20.6992 84.7757 18.4087 84.0686 16.6403C83.9003 16.2361 84.0013 15.9497 84.338 15.7476C84.6747 15.5624 85.0283 15.6297 85.264 15.9834C86.392 17.5666 87.7556 19.9582 88.5806 22.316C88.9005 23.1918 88.5974 23.7982 87.7725 24.0676ZM74.4555 24.1855C74.1525 24.455 73.7989 24.5055 73.5464 24.2529C73.2602 23.9834 73.2602 23.6971 73.4622 23.3603C74.5228 21.6761 75.3646 19.5876 75.8697 16.7413C76.0212 15.9666 76.56 15.6466 77.3344 15.7982C78.1425 15.9666 78.4119 16.556 78.2435 17.2634C77.6038 20.0424 76.0212 22.7876 74.4555 24.1855Z" fill="#515151"/>
<path d="M96.4975 15.8824H91.4805C91.0428 15.8824 90.8239 15.6466 90.8239 15.2255C90.8239 14.7876 91.0428 14.5518 91.4805 14.5518H93.0126V12.8171C93.0126 12.1939 93.3829 11.8234 94.09 11.8234C94.7971 11.8234 95.1843 12.1939 95.1843 12.8171V14.5518H96.4975C96.9184 14.5518 97.1541 14.7876 97.1541 15.2255C97.1541 15.6466 96.9184 15.8824 96.4975 15.8824ZM105.774 22.9729C106.279 26.0887 105.942 27.0487 104.696 27.1497C104.09 27.2003 103.518 27.2171 102.861 27.1666C101.616 27.0655 101.313 26.6613 101.313 25.2466V20.9687H100.723C100.572 24.3034 99.3259 26.5603 96.5985 27.5708C96.245 27.6887 95.9925 27.6045 95.8578 27.3182C95.7063 27.0318 95.7904 26.7792 96.1103 26.5603C97.8612 25.3645 98.5851 23.9329 98.6862 20.9687H98.2484C97.575 20.9687 97.2215 20.5982 97.2215 19.9245V16.6571C97.2215 16.0003 97.575 15.6297 98.2484 15.6297H99.0734C98.9219 15.5118 98.7872 15.3434 98.703 15.0908C98.4505 14.3834 98.1137 13.5245 97.8444 12.8845C97.6929 12.5308 97.7602 12.2445 98.0296 12.0592C98.3158 11.8908 98.602 11.9076 98.8713 12.1603C99.3932 12.6655 100.05 13.4234 100.488 14.1645C100.875 14.8045 100.723 15.2761 100.134 15.5961C100.117 15.6129 100.1 15.6129 100.067 15.6297H101.582C101.885 14.7371 102.137 13.7434 102.356 12.7161C102.508 11.9918 102.996 11.7897 103.686 11.9582C104.377 12.1266 104.562 12.6655 104.343 13.2887C104.006 14.1645 103.535 14.9729 103.013 15.6297H103.973C104.629 15.6297 105 16.0003 105 16.6571V19.9245C105 20.5982 104.629 20.9687 103.973 20.9687H103.316V24.775C103.316 25.1455 103.383 25.2466 103.686 25.2803C103.888 25.2971 104.09 25.2971 104.292 25.2803C104.612 25.2466 104.663 25.0445 104.73 23.0066C104.73 22.6192 104.966 22.4845 105.235 22.4845C105.521 22.4845 105.723 22.6361 105.774 22.9729ZM91.9856 18.1729C91.5647 18.1729 91.329 17.9371 91.329 17.516C91.329 17.1118 91.5647 16.876 91.9856 16.876H96.0261C96.447 16.876 96.6659 17.1118 96.6659 17.516C96.6659 17.9371 96.447 18.1729 96.0261 18.1729H91.9856ZM99.3427 19.4866C99.3427 19.6045 99.4269 19.6887 99.5448 19.6887H102.676C102.794 19.6887 102.878 19.6045 102.878 19.4866V17.1118C102.878 16.9939 102.794 16.9097 102.676 16.9097H99.5448C99.4269 16.9097 99.3427 16.9939 99.3427 17.1118V19.4866ZM92.0024 20.396C91.5984 20.396 91.3458 20.1434 91.3458 19.7392C91.3458 19.3182 91.5984 19.0992 92.0024 19.0992H95.9925C96.4133 19.0992 96.6659 19.3182 96.6659 19.7392C96.6659 20.1434 96.4133 20.396 95.9925 20.396H92.0024ZM96.7332 25.2129C96.7332 25.8697 96.3628 26.2403 95.6894 26.2403H93.3661V26.7624C93.3661 27.3182 93.0126 27.6213 92.3728 27.6213C91.7499 27.6213 91.3963 27.3182 91.3963 26.7624V22.4003C91.3963 21.7434 91.7667 21.3729 92.4233 21.3729H95.6894C96.3628 21.3729 96.7332 21.7434 96.7332 22.4003V25.2129ZM94.7635 24.7918V22.8213C94.7635 22.7034 94.6793 22.6192 94.5614 22.6192H93.5681C93.4503 22.6192 93.3661 22.7034 93.3661 22.8213V24.9939H94.5614C94.6793 24.9939 94.7635 24.9097 94.7635 24.7918Z" fill="#515151"/>
</svg>
