<svg width="126" height="38" viewBox="0 0 126 38" fill="none" xmlns="http://www.w3.org/2000/svg"><path d="M17.8458 19.25h5.2752c1.2891 0 1.9336-1.4609 1.1172-2.4062l-2.9648-3.3946h.6445c1.1172 0 1.7188-1.289.9883-2.1484L20.3281 8.293h.4296c.9454 0 1.418-.9883.8594-1.6328L15.8163.3867c-.4726-.5156-1.2031-.5156-1.6757 0L8.3398 6.6602c-.5586.6445-.086 1.6328.8593 1.6328h.4297l-2.578 3.0078c-.6876.8594-.129 2.1484.9882 2.1484h.6445l-2.9648 3.3946c-.8164.9453-.1719 2.4492 1.0742 2.4492h5.3076V28h5.7453v-8.75Z" fill="#80D4CC"/><path d="M17.8423 29H12.104c.0204.3998.1297.81.328 1.1669l1.8782 3.4693c.1326.2209.3757.3756.6629.3535.2873.0221.5304-.1326.6408-.3756l1.9004-3.4472c.1983-.3569.3076-.7671.328-1.1669Z" fill="#66AAA3"/><ellipse cx="14.5" cy="36.5" rx="14.5" ry="1.5" fill="#CC8B49"/><path d="M37.9912 33.5986V31.04h-.1904c-.4151 0-.6494-.2197-.6494-.5957 0-.3759.2343-.5957.6494-.5957h.2295v-.5664c0-.5371.2734-.8349.7568-.8349.4883 0 .7568.2978.7568.8349v.5664h.4102c.415 0 .6494.2198.6494.5957 0 .376-.2344.5957-.6494.5957h-.3906v2.3194c0 .4199.1172.5761.4492.5761.1367 0 .2197-.0244.3564-.0244.2442 0 .4151.1709.4151.4444 0 .2246-.1026.4101-.2979.542-.2099.1464-.5175.2246-.9131.2246-1.0839 0-1.582-.4688-1.582-1.5235ZM46.9141 34.1895c0 .5517-.2784.8593-.7813.8593-.5078 0-.7861-.3076-.7861-.8593v-2.2217c0-.6104-.3028-.9619-.8252-.9619-.5518 0-.918.4345-.918 1.1084v2.0752c0 .5517-.2832.8593-.7812.8593-.5078 0-.7862-.3076-.7862-.8593v-5.3858c0-.5566.2832-.8642.7862-.8642.5029 0 .7812.3076.7812.8642v1.8848h.0781c.1758-.5811.7959-.9815 1.5137-.9815 1.084 0 1.7188.6836 1.7188 1.8506v2.6319ZM48.498 28.4521c0-.4443.3565-.7617.8448-.7617.4931 0 .8447.3174.8447.7617 0 .4493-.3516.7667-.8447.7667-.4883 0-.8448-.3174-.8448-.7667Zm1.6309 5.7374c0 .5615-.2881.8593-.7861.8593-.4981 0-.7813-.2978-.7813-.8593v-3.5889c0-.5615.2881-.8594.7813-.8594.498 0 .7861.2979.7861.8594v3.5889ZM56.6592 34.1943c0 .5567-.2832.8545-.7862.8545-.5078 0-.7861-.3076-.7861-.8593v-2.2266c0-.6006-.2978-.957-.8105-.957-.5518 0-.9082.4199-.9082 1.1084v2.0752c0 .5517-.2784.8593-.7813.8593s-.7861-.3076-.7861-.8593v-3.6182c0-.5176.293-.8301.7666-.8301.4638 0 .7324.2637.7568.7568v.1905h.0781c.1905-.5957.7911-.9815 1.5332-.9815 1.0987 0 1.7237.669 1.7237 1.8457v2.6416ZM59.8447 34.1895c0 .5468-.2685.8593-.7666.8593-.5078 0-.7959-.3125-.7959-.8593v-5.3858c0-.5566.2735-.8642.7813-.8642.5029 0 .7812.3076.7812.8642v2.8906h.0879l1.626-1.6845c.2148-.2246.4004-.3174.6396-.3174.3907 0 .6739.2832.6739.6738 0 .2002-.0782.376-.2442.542l-1.1767 1.1816 1.3086 1.6163c.1757.2099.2636.4199.2636.625 0 .3955-.3125.708-.7129.708-.2734 0-.4785-.1123-.6835-.3614l-1.3868-1.7529-.3955.3809v.8838ZM70.0049 34.126c-.1709.5127-.7227.9326-1.543.9326-1.04 0-1.7041-.5859-1.7041-1.8018v-2.6611c0-.5664.293-.8545.791-.8545.4932 0 .7813.2881.7813.8545v2.2656c0 .6446.3369.9229.8056.9229.5616 0 .9034-.3809.9034-.9571v-2.2314c0-.5664.288-.8545.7812-.8545.4981 0 .7861.2881.7861.8545v3.6231c0 .5273-.3027.83-.7666.83-.4541 0-.7324-.2588-.7568-.7519v-.1709h-.0781ZM74.8018 35.9619c0 .5567-.2784.8594-.7813.8594-.5078 0-.7812-.3027-.7812-.8594v-5.3613c0-.5518.2734-.8594.7714-.8594.4639 0 .7422.2539.7813.7227v.1465h.0781c.21-.5518.7666-.9034 1.4893-.9034 1.2011 0 1.9092.8741 1.9092 2.3682v.6006c0 1.499-.7129 2.3828-1.919 2.3828-.708 0-1.2451-.3174-1.4697-.874h-.0781v1.7773Zm0-3.291c0 .7178.3711 1.1719.9375 1.1719.5761 0 .913-.4639.913-1.2549v-.4102c0-.8007-.3369-1.2548-.9228-1.2548-.5762 0-.9277.4443-.9277 1.206v.542ZM82.5791 33.5986V31.04h-.1904c-.4151 0-.6494-.2197-.6494-.5957 0-.3759.2343-.5957.6494-.5957h.2295v-.5664c0-.5371.2734-.8349.7568-.8349.4883 0 .7568.2978.7568.8349v.5664h.4102c.415 0 .6494.2198.6494.5957 0 .376-.2344.5957-.6494.5957h-.3906v2.3194c0 .4199.1172.5761.4492.5761.1367 0 .2197-.0244.3564-.0244.2442 0 .4151.1709.4151.4444 0 .2246-.1026.4101-.2979.542-.2099.1464-.5176.2246-.9131.2246-1.084 0-1.582-.4688-1.582-1.5235ZM88.8213 29.6582c1.5039 0 2.5049.9375 2.5049 2.4609v.5079c0 1.5918-1.001 2.5-2.5049 2.5-1.5088 0-2.5098-.9082-2.5098-2.4952v-.5029c0-1.5332 1.001-2.4707 2.5098-2.4707Zm0 1.1719c-.5567 0-.8936.4736-.8936 1.289v.542c0 .8155.3369 1.294.8936 1.294.5615 0 .8838-.4785.8838-1.294v-.542c0-.8154-.3223-1.289-.8838-1.289ZM95.8984 34.0625c-.1904.4834-.7324.8154-1.4502.8154-1.167 0-1.9238-.8691-1.9238-2.3828v-.4004c0-1.5136.7568-2.3877 1.919-2.3877.747 0 1.289.3711 1.4697.8741h.0781v-.1319c.0342-.4785.3223-.7275.7666-.7275.4981 0 .7861.3027.7861.8594v4.2675c0 1.3819-.9912 2.1094-2.5781 2.1094-.7129 0-1.2793-.1123-1.6601-.3223-.3565-.1953-.5713-.4785-.5713-.8154 0-.3467.2441-.5762.6299-.5762.2148 0 .3564.083.5273.1856.2393.1318.5371.3125 1.0645.3125.6933 0 1.0205-.3174 1.0205-1.0205v-.6592h-.0782Zm-1.7529-1.543c0 .7617.3613 1.2403.9277 1.2403.5811 0 .9034-.4981.9034-1.1817v-.4687c0-.6934-.3272-1.1865-.9131-1.1865-.5664 0-.918.4736-.918 1.2402v.3564ZM98.9814 32.6855v-.5761c0-1.4746.9766-2.4512 2.4466-2.4512 1.382 0 2.358.9668 2.358 2.2607 0 .5957-.21.8106-.771.8106h-2.437v.1904c.01.6153.42 1.0303 1.118 1.0303.376 0 .63-.083.83-.2295.24-.1514.342-.2441.586-.2441.318 0 .528.205.528.5371 0 .2783-.171.5224-.469.708-.357.2539-.928.4053-1.587.4053-1.6113 0-2.6026-.918-2.6026-2.4415Zm1.5966-.8544h1.729v-.0147c0-.5957-.332-.9863-.845-.9863-.552 0-.884.4004-.884.9863v.0147ZM105.624 33.5986V31.04h-.19c-.415 0-.65-.2197-.65-.5957 0-.3759.235-.5957.65-.5957h.229v-.5664c0-.5371.274-.8349.757-.8349.488 0 .757.2978.757.8349v.5664h.41c.415 0 .649.2198.649.5957 0 .376-.234.5957-.649.5957h-.391v2.3194c0 .4199.117.5761.45.5761.136 0 .219-.0244.356-.0244.244 0 .415.1709.415.4444 0 .2246-.103.4101-.298.542-.21.1464-.517.2246-.913.2246-1.084 0-1.582-.4688-1.582-1.5235ZM114.547 34.1895c0 .5517-.278.8593-.781.8593-.508 0-.787-.3076-.787-.8593v-2.2217c0-.6104-.302-.9619-.825-.9619-.551 0-.918.4345-.918 1.1084v2.0752c0 .5517-.283.8593-.781.8593-.508 0-.786-.3076-.786-.8593v-5.3858c0-.5566.283-.8642.786-.8642.503 0 .781.3076.781.8642v1.8848h.078c.176-.5811.796-.9815 1.514-.9815 1.084 0 1.719.6836 1.719 1.8506v2.6319ZM115.931 32.6855v-.5761c0-1.4746.976-2.4512 2.446-2.4512 1.382 0 2.358.9668 2.358 2.2607 0 .5957-.21.8106-.771.8106h-2.437v.1904c.01.6153.42 1.0303 1.119 1.0303.375 0 .629-.083.83-.2295.239-.1514.341-.2441.586-.2441.317 0 .527.205.527.5371 0 .2783-.171.5224-.469.708-.356.2539-.928.4053-1.587.4053-1.611 0-2.602-.918-2.602-2.4415Zm1.596-.8544h1.729v-.0147c0-.5957-.332-.9863-.845-.9863-.552 0-.884.4004-.884.9863v.0147ZM123.721 34.1895c0 .5468-.293.8593-.801.8593-.513 0-.767-.3125-.767-.8593v-3.5889c0-.5518.269-.8594.772-.8594.454 0 .713.2539.747.7276v.0732h.073c.176-.5371.547-.835 1.05-.835.215 0 .386.0586.508.1758.127.1172.195.2881.195.5078 0 .2149-.063.3711-.19.4785-.118.0977-.298.1514-.533.1612-.708.0244-1.054.4101-1.054 1.1572v2.002ZM37.4719 17.32c-.416 0-.656-.24-.656-.672 0-.432.24-.656.656-.656h2.752v-3.68h-1.952c-.4 0-.64-.224-.64-.656 0-.416.24-.656.64-.656h1.952V8.536c0-.64.4-.992 1.12-.992.72 0 1.12.352 1.12.992V11h3.056V8.536c0-.64.4-.992 1.12-.992.704 0 1.12.352 1.12.992V11h1.984c.416 0 .64.24.64.656 0 .432-.224.656-.64.656h-1.984v3.68h2.784c.416 0 .656.224.656.656 0 .432-.24.672-.656.672h-13.072Zm4.992-5.008v3.68h3.056v-3.68h-3.056Zm.368 5.712c.576.528.528 1.184-.112 1.712-1.52 1.296-3.6 2.336-4.992 2.704-.352.096-.64 0-.768-.304-.128-.288-.064-.56.288-.784 1.152-.736 2.64-1.872 3.824-3.232.528-.592 1.216-.608 1.76-.096Zm7.648 2.08c.672.496.816 1.168.32 1.84-.512.64-1.232.688-1.856.096-1.072-1.024-2.512-2.256-3.632-3.136-.352-.288-.416-.576-.224-.912.176-.336.464-.4.88-.256 1.44.464 3.2 1.424 4.512 2.368ZM54.0839 12.408c-.304.16-.576.176-.768-.08-.192-.272-.128-.496.08-.736 1.056-1.152 1.776-2.544 2.192-3.696.224-.608.8-.816 1.44-.576.656.256.784.752.496 1.392v.016h2.704c.384 0 .608.256.608.624 0 .384-.224.608-.608.608h-1.712c.192.24.368.496.528.768.288.56.064.96-.512 1.12-.544.176-.912-.048-1.024-.64-.112-.416-.208-.816-.32-1.248h-.416c-.72 1.008-1.728 1.952-2.688 2.448Zm12.976 6.784c.4 0 .624.208.624.608 0 .384-.224.624-.624.624h-5.392v.976c0 .736-.416 1.072-1.152 1.072-.752 0-1.168-.336-1.168-1.072v-.976h-5.44c-.4 0-.624-.24-.624-.624 0-.4.224-.608.624-.608h5.44v-.576h-4.016c-.384 0-.592-.224-.592-.608s.208-.576.592-.576h4.016v-.576h-3.632c-.368 0-.592-.24-.592-.592 0-.368.224-.576.592-.576h3.632v-.576h-5.216c-.4 0-.624-.24-.624-.64 0-.384.224-.592.624-.592h5.216v-.56h-3.488c-.384 0-.592-.192-.592-.576 0-.368.208-.592.592-.592h3.488v-.4c0-.64.384-.992.992-1.056l.016-.016c.512-.8.944-1.68 1.216-2.72.176-.672.736-.8 1.408-.576.64.208.688.72.448 1.28l-.048.096h3.68c.384 0 .608.208.608.608s-.224.624-.608.624h-2.048c.176.192.336.4.48.624.352.544.16.992-.416 1.2-.576.224-.992-.016-1.136-.624-.096-.416-.208-.816-.336-1.2h-.992c-.32.416-.688.832-1.072 1.184.08.16.128.336.128.56v.416h3.328c.64 0 .992.352.992.976v.752h1.088c.4 0 .608.224.608.608 0 .4-.208.624-.608.624h-1.088v.784c0 .64-.352.96-.992.96h-3.328v.576h4.576c.4 0 .608.192.608.576 0 .384-.208.608-.608.608h-4.576v.576h5.392Zm-5.392-5.872v.56h2.128v-.272c0-.144-.08-.288-.192-.288h-1.936Zm0 1.792v.576h1.936c.112 0 .192-.048.192-.16v-.416h-2.128ZM72.8399 21.672c-.304-.128-.432-.384-.336-.72.08-.304.288-.432.688-.384 2.496.272 2.8.08 2.8-.72V8.552c0-.768.4-1.12 1.184-1.12.784 0 1.216.352 1.216 1.12v11.792c0 2.048-2.064 2.816-5.552 1.328Zm10.576-2.608c-.8.256-1.408-.064-1.584-.832-.592-2.368-1.264-4.544-1.936-6.224-.16-.384-.064-.656.256-.848.32-.176.656-.112.88.224 1.072 1.504 2.368 3.776 3.152 6.016.304.832.016 1.408-.768 1.664Zm-12.656.112c-.288.256-.624.304-.864.064-.272-.256-.272-.528-.08-.848 1.008-1.6 1.808-3.584 2.288-6.288.144-.736.656-1.04 1.392-.896.768.16 1.024.72.864 1.392-.608 2.64-2.112 5.248-3.6 6.576ZM91.7079 11.288h-4.768c-.416 0-.624-.224-.624-.624 0-.416.208-.64.624-.64h1.456V8.376c0-.592.352-.944 1.024-.944s1.04.352 1.04.944v1.648h1.248c.4 0 .624.224.624.64 0 .4-.224.624-.624.624Zm8.8161 6.736c.48 2.96.16 3.872-1.0241 3.968-.576.048-1.12.064-1.744.016-1.184-.096-1.472-.48-1.472-1.824V16.12h-.56c-.144 3.168-1.328 5.312-3.92 6.272-.336.112-.576.032-.704-.24-.144-.272-.064-.512.24-.72 1.664-1.136 2.352-2.496 2.448-5.312h-.416c-.64 0-.976-.352-.976-.992v-3.104c0-.624.336-.976.976-.976h.784c-.144-.112-.272-.272-.352-.512-.24-.672-.56-1.488-.816-2.096-.144-.336-.08-.608.176-.784.272-.16.544-.144.8.096.496.48 1.12 1.2 1.536 1.904.368.608.224 1.056-.336 1.36-.016.016-.032.016-.064.032h1.44c.288-.848.528-1.792.736-2.768.144-.688.608-.88 1.264-.72.656.16.832.672.624 1.264-.32.832-.768 1.6-1.264 2.224h.912c.624 0 .976.352.976.976v3.104c0 .64-.352.992-.976.992h-.624v3.616c0 .352.064.448.352.48.192.016.384.016.576 0 .304-.032.352-.224.416-2.16 0-.368.224-.496.4801-.496.272 0 .464.144.512.464Zm-13.1041-4.56c-.4 0-.624-.224-.624-.624 0-.384.224-.608.624-.608h3.84c.4 0 .608.224.608.608 0 .4-.208.624-.608.624h-3.84Zm6.992 1.248c0 .112.08.192.192.192h2.976c.112 0 .192-.08.192-.192v-2.256c0-.112-.08-.192-.192-.192h-2.976c-.112 0-.192.08-.192.192v2.256Zm-6.976.864c-.384 0-.624-.24-.624-.624 0-.4.24-.608.624-.608h3.792c.4 0 .64.208.64.608 0 .384-.24.624-.64.624h-3.792Zm4.496 4.576c0 .624-.352.976-.992.976h-2.208v.496c0 .528-.336.816-.944.816-.592 0-.928-.288-.928-.816V17.48c0-.624.352-.976.976-.976h3.104c.64 0 .992.352.992.976v2.672Zm-1.872-.4V17.88c0-.112-.08-.192-.192-.192h-.944c-.112 0-.192.08-.192.192v2.064h1.136c.112 0 .192-.08.192-.192Z" fill="#515151"/></svg>